<svg xmlns="http://www.w3.org/2000/svg" viewBox="0 0 1440 900" fill="none"><style>.a{fill:white;}.b{opacity:0.3;stroke-linejoin:round;stroke-width:20;stroke:#61DAA4;}.c{stop-opacity:0;}</style><g clip-path="url(#clip0)"><rect width="1440" height="900" class="a"/><rect width="1440" height="900" fill="#4FB286"/><path d="M1437 256H1407.1C1377.1 256 1317.3 256 1257.4 306.3 1197.5 356.6 1137.6 457.2 1077.8 493.1 1017.9 529 958 500.3 898.1 507.5 838.3 514.7 778.4 557.8 718.5 557.8 658.6 557.8 598.8 514.7 538.9 478.7 479 442.8 419.1 414.1 359.3 435.6 299.4 457.2 239.5 529 179.6 507.5 119.8 485.9 59.9 371 29.9 313.5L0 256V898.5H29.9C59.9 898.5 119.8 898.5 179.6 898.5 239.5 898.5 299.4 898.5 359.3 898.5 419.1 898.5 479 898.5 538.9 898.5 598.8 898.5 658.6 898.5 718.5 898.5 778.4 898.5 838.3 898.5 898.1 898.5 958 898.5 1017.9 898.5 1077.8 898.5 1137.6 898.5 1197.5 898.5 1257.4 898.5 1317.3 898.5 1377.1 898.5 1407.1 898.5H1437V256Z" style="fill:#3C896D;opacity:0.5"/><circle r="382" transform="matrix(0.288906 -0.957358 -0.957358 -0.288906 717 4.99995)" style="fill:url(#paint0_linear);opacity:0.5"/><path d="M1437 256H1407.1C1377.1 256 1317.3 256 1257.4 306.3 1197.5 356.6 1137.6 457.2 1077.8 493.1 1017.9 529 958 500.3 898.1 507.5 838.3 514.7 778.4 557.8 718.5 557.8 658.6 557.8 598.8 514.7 538.9 478.7 479 442.8 419.1 414.1 359.3 435.6 299.4 457.2 239.5 529 179.6 507.5 119.8 485.9 59.9 371 29.9 313.5L0 256V898.5H29.9C59.9 898.5 119.8 898.5 179.6 898.5 239.5 898.5 299.4 898.5 359.3 898.5 419.1 898.5 479 898.5 538.9 898.5 598.8 898.5 658.6 898.5 718.5 898.5 778.4 898.5 838.3 898.5 898.1 898.5 958 898.5 1017.9 898.5 1077.8 898.5 1137.6 898.5 1197.5 898.5 1257.4 898.5 1317.3 898.5 1377.1 898.5 1407.1 898.5H1437V256Z" style="fill:url(#paint1_linear);opacity:0.5"/><g clip-path="url(#clip1)"><path d="M-133 0H459V901H233.3C235.4 868.9 217.3 837.7 159.5 817 31.1 771-39.7 529.5-59 414.5L-32.2 901H-133V0Z" class="a"/><path d="M1155.6 1161.6L1146.4 1133.1C1137.1 1104.6 1118.6 1047.6 1052.3 1006.2 986 964.8 871.8 938.9 819.2 893 766.5 847.1 775.4 781.3 750.1 726.6 724.8 671.8 665.3 628.2 646.8 571.2 628.3 514.3 650.9 444 666.6 376 682.3 308 691.1 242.1 652.1 191.8 613.2 141.5 526.3 106.8 528.4 43.1 530.4-20.5 621.3-112.9 666.7-159.1L712.1-205.3 101-7 110.2 21.4C119.5 49.9 138 106.9 156.4 163.8 174.9 220.8 193.4 277.7 211.9 334.7 230.3 391.6 248.8 448.6 267.3 505.5 285.8 562.5 304.2 619.4 322.7 676.4 341.2 733.3 359.7 790.3 378.2 847.2 396.6 904.2 415.1 961.1 433.6 1018.1 452.1 1075.1 470.5 1132 489 1189 507.5 1245.9 526 1302.9 535.2 1331.3L544.4 1359.8 1155.6 1161.6Z" class="a"/></g><path d="M1247.1 818.8C1253 848.1 1296.9 848.3 1319.3 868.1 1339.6 886 1344.4 922.4 1370.9 928.3 1397.2 934.1 1420.2 910.3 1442.9 895.5 1463.1 882.4 1484.2 869.4 1494.8 847.7 1505.3 826.2 1500.6 801.8 1500.4 777.9 1500.1 748.9 1509.9 717 1493.2 693.3 1475.7 668.6 1443.5 651.8 1413.4 654.8 1384.4 657.7 1369.6 689.9 1346.5 707.8 1329.1 721.3 1309.8 730.3 1295.1 746.7 1275.4 768.8 1241.4 789.8 1247.1 818.8Z" style="fill:#6FCF97;opacity:0.2"/><path d="M1462.5 94.5C1424.7 76.6 1392.4 58.1 1361.7 29.2 1353 21 1344.8 12.3 1337.1 3.2 1289.6-52 1344.8 10.4 1317.5-26.9" class="b"/><path d="M1446 129.4C1408.2 111.5 1375.9 93 1345.2 64.1 1336.5 55.9 1310.3 29.6 1302.5 20.5 1255.1-34.7 1310.3 27.7 1282.9-9.6" class="b"/><path d="M1491 71.4C1453.2 53.5 1420.9 35 1390.2 6.1 1381.5-2.1 1373.3-10.9 1365.5-19.9 1318.1-75.1 1373.3-12.7 1346-50" class="b"/></g><defs><linearGradient x1="142" y1="655.5" x2="370" y2="464.5" gradientUnits="userSpaceOnUse"><stop stop-color="#6FCF97"/><stop offset="1" stop-color="#6FCF97" class="c"/></linearGradient><linearGradient x1="718.5" y1="256" x2="341.5" y2="899" gradientUnits="userSpaceOnUse"><stop offset="0.151042" stop-color="#2ADD9C" class="c"/><stop offset="0.729167" stop-color="#29E19E"/></linearGradient><clipPath><rect width="1440" height="900" class="a"/></clipPath><clipPath><rect width="1289" height="900" class="a"/></clipPath></defs></svg>
 